<?xml version="1.0" standalone="no"?><!DOCTYPE svg PUBLIC "-//W3C//DTD SVG 1.1//EN" "http://www.w3.org/Graphics/SVG/1.1/DTD/svg11.dtd"><svg t="1676324022030" class="icon" viewBox="0 0 1024 1024" version="1.1" xmlns="http://www.w3.org/2000/svg" p-id="4782" xmlns:xlink="http://www.w3.org/1999/xlink" width="128" height="128"><path d="M791.5 828.5H651.7c-20.7 0-37.3-16.7-37.3-37.3s16.6-37.3 37.3-37.3h139.9c3.9 0 8-0.1 11.7-0.8 47.2-6.7 81.5-46.4 81.5-92.4 0-30.9-15.4-59.8-41.1-77.1-21.6-14.5-34.1-39.2-33.6-65.9 1.7-111.6-65.2-206.5-166.6-237.1-131.5-39.8-278.4 28.7-320.2 149.8-5.1 15-19.3 25.1-35.2 25.1-41.9 0-82.1 17.8-110.4 48.9-28.6 31.5-42.1 72.4-38 115.1 7.2 75.3 76 134.3 156.6 134.3h209.4c20.6 0 37.3 16.7 37.3 37.3s-16.7 37.3-37.3 37.3H296.2c-118.6 0-219.9-88.6-230.9-201.8-6-63 14.8-125.8 57.1-172.4 36.5-40.2 86.4-65.6 139.8-71.8C326.5 239.3 504.9 160.7 665.1 209 798.7 249.4 887 373.4 884.8 517.5c0 0.8-0.1 2.9-0.2 3.8 47.1 31.5 74.8 83.5 74.8 139.2 0 83-61.9 154.3-143.9 166-6.6 1.4-15.3 2-24 2" fill="#ffffff" p-id="4783" data-spm-anchor-id="a313x.7781069.0.i5" class="selected"></path><path d="M513.8 719.2c-20.6 0-37.3-16.7-37.3-37.3V431.7c0-20.6 16.7-37.3 37.3-37.3s37.3 16.7 37.3 37.3v250.2c0 20.6-16.7 37.3-37.3 37.3" fill="#ffffff" p-id="4784" data-spm-anchor-id="a313x.7781069.0.i6" class="selected"></path><path d="M663 580.8c-11 0-21.8-4.8-29.2-14l-120.1-150-120 150c-12.8 16.1-36.3 18.8-52.4 5.8-16.1-12.9-18.7-36.3-5.8-52.4l120.1-150c14.1-17.8 35.4-28 58.2-28 22.8 0 44.1 10.2 58.3 28l120 150c12.9 16.1 10.3 39.6-5.8 52.4-6.9 5.6-15.1 8.2-23.3 8.2" fill="#ffffff" p-id="4785" data-spm-anchor-id="a313x.7781069.0.i7" class="selected"></path></svg>